<?xml version="1.0" standalone="no"?>
<!DOCTYPE svg PUBLIC "-//W3C//DTD SVG 20010904//EN"
 "http://www.w3.org/TR/2001/REC-SVG-20010904/DTD/svg10.dtd">
<svg version="1.0" xmlns="http://www.w3.org/2000/svg"
 width="200.000000pt" height="80.000000pt" viewBox="0 0 590.000000 345.000000"
 preserveAspectRatio="xMidYMid meet">

<g transform="translate(0.000000,345.000000) scale(0.100000,-0.100000)"
fill="#ffffff" stroke="none">
<path d="M2650 2923 c119 -32 181 -127 137 -212 -25 -50 -116 -88 -174 -74
-20 4 -23 12 -23 53 0 26 7 66 15 89 8 22 12 41 10 41 -9 0 -55 -99 -55 -117
-1 -46 -15 -46 -95 3 -184 111 -280 121 -373 37 -36 -33 -36 -33 -7 -19 17 8
52 17 78 21 57 9 100 -13 95 -48 -3 -20 -10 -22 -93 -28 -117 -7 -170 -33
-303 -145 -56 -47 -102 -88 -102 -90 0 -3 19 7 43 21 110 69 242 115 327 115
25 0 90 -7 144 -15 124 -19 129 -18 86 4 -19 11 -44 29 -55 41 -26 29 -10 54
37 58 28 2 44 -4 79 -32 24 -19 67 -50 96 -68 29 -18 53 -38 53 -44 0 -14 60
-104 68 -104 4 1 21 12 37 26 l30 25 -29 24 -30 24 30 6 c79 18 129 40 164 74
l39 37 38 -38 c35 -36 50 -43 162 -75 11 -3 9 -9 -8 -26 -11 -13 -21 -26 -21
-28 0 -3 14 -15 30 -28 l31 -22 19 23 c10 13 27 40 36 61 9 20 20 37 24 37 5
0 48 29 96 65 74 55 95 65 123 63 46 -4 62 -30 36 -58 -11 -12 -36 -31 -55
-42 l-35 -19 40 6 c181 25 237 28 297 17 59 -11 218 -82 298 -133 49 -31 31
-15 -95 91 -132 111 -191 141 -289 147 -39 2 -81 6 -93 9 -31 6 -30 39 2 60
29 19 99 13 150 -13 l30 -16 -20 23 c-28 32 -113 70 -156 70 -50 0 -106 -21
-208 -79 -47 -28 -92 -51 -99 -53 -9 -2 -19 15 -28 49 -11 45 -57 133 -68 133
-2 0 5 -18 16 -39 25 -52 35 -145 17 -167 -10 -12 -23 -14 -58 -9 -119 18
-170 96 -124 192 20 43 77 82 146 99 l52 12 -59 1 c-77 1 -132 -25 -189 -90
l-43 -49 -31 43 c-42 60 -117 97 -192 96 l-56 -1 55 -15z"/>
<path d="M1080 2139 c-45 -19 -60 -40 -60 -85 0 -42 2 -45 60 -84 33 -22 64
-48 69 -58 13 -25 -4 -60 -34 -68 -34 -9 -53 0 -73 36 -19 34 -47 41 -38 10 3
-11 9 -29 12 -40 11 -42 123 -38 164 5 50 53 25 117 -67 171 -35 20 -43 30
-43 55 0 56 78 63 95 8 10 -30 31 -17 27 17 -2 16 -5 31 -7 32 -9 10 -83 10
-105 1z"/>
<path d="M1275 2141 c-3 -5 4 -12 15 -16 19 -6 20 -15 20 -139 0 -127 -1 -134
-22 -149 -22 -15 -19 -16 50 -16 42 -1 72 3 72 9 0 6 -6 10 -14 10 -22 0 -26
24 -26 151 0 108 2 120 20 131 11 7 20 16 20 20 0 11 -128 10 -135 -1z"/>
<path d="M1486 2141 c-3 -5 3 -11 14 -14 19 -5 20 -14 20 -140 0 -128 -1 -135
-22 -150 -22 -15 -19 -16 50 -16 42 -1 72 3 72 9 0 6 -7 10 -15 10 -8 0 -17
11 -21 23 -8 36 -1 100 13 104 6 2 51 -47 98 -111 77 -102 92 -116 132 -130
59 -20 63 -20 63 4 0 23 -10 26 -29 8 -16 -17 -47 18 -131 151 -33 53 -66 104
-73 113 -10 15 -4 25 38 68 28 28 60 53 72 56 13 4 20 10 17 15 -7 12 -114 11
-114 -1 0 -5 5 -10 10 -10 6 0 10 -5 10 -11 0 -12 -92 -119 -102 -119 -5 0 -8
23 -8 50 0 37 5 55 20 70 11 11 20 22 20 25 0 9 -129 5 -134 -4z"/>
<path d="M1840 2140 c0 -5 6 -10 14 -10 22 0 26 -24 26 -157 0 -116 -1 -125
-20 -130 -43 -11 -17 -23 50 -23 40 0 70 4 70 10 0 6 -7 10 -15 10 -8 0 -17
11 -21 23 -8 35 -1 100 13 104 6 2 49 -46 94 -107 83 -112 106 -132 167 -145
28 -6 32 -4 32 14 0 24 -10 27 -29 9 -16 -17 -49 21 -132 152 -33 52 -66 103
-72 112 -10 15 -4 25 38 68 28 28 60 53 73 57 12 3 22 9 22 14 0 12 -117 11
-125 -1 -3 -5 1 -10 9 -10 26 0 19 -14 -36 -80 l-53 -62 -3 58 c-3 50 0 62 17
76 12 9 21 19 21 22 0 3 -31 6 -70 6 -40 0 -70 -4 -70 -10z"/>
<path d="M2305 2132 c-104 -49 -135 -161 -68 -250 37 -49 75 -65 149 -60 67 4
101 21 137 70 26 35 33 114 14 159 -34 82 -146 121 -232 81z m147 -45 c68 -89
22 -247 -72 -247 -44 0 -73 19 -94 64 -37 79 -5 198 58 215 40 10 87 -3 108
-32z"/>
<path d="M2816 2142 c-3 -5 3 -12 14 -15 19 -5 20 -14 20 -142 0 -128 -1 -137
-20 -142 -49 -13 -11 -23 88 -23 92 0 114 3 152 23 111 55 119 219 14 278 -34
20 -258 37 -268 21z m214 -40 c43 -21 60 -53 60 -115 0 -69 -23 -112 -71 -131
-59 -24 -88 -21 -99 10 -6 14 -10 77 -10 140 l0 114 43 0 c23 0 58 -8 77 -18z"/>
<path d="M3210 2142 c0 -4 8 -12 19 -19 16 -10 19 -26 19 -143 1 -123 0 -132
-18 -137 -52 -14 -8 -23 110 -23 104 0 130 3 130 14 0 7 3 28 6 45 8 39 -6 40
-28 2 -13 -24 -26 -31 -62 -36 -62 -10 -78 4 -74 63 3 44 5 46 47 60 37 12 45
12 52 1 6 -10 9 -6 9 14 0 35 -21 44 -72 30 l-38 -10 0 59 0 59 53 -3 c43 -2
54 -7 62 -25 15 -35 25 -28 25 17 l0 40 -120 0 c-66 0 -120 -3 -120 -8z"/>
<path d="M3611 2137 c-13 -6 -33 -24 -44 -39 -32 -43 -15 -84 58 -134 48 -32
61 -46 63 -70 6 -61 -84 -73 -110 -14 -7 16 -19 30 -26 30 -18 0 -6 -61 16
-77 26 -21 95 -16 133 10 31 21 34 27 34 72 0 46 -2 51 -45 82 -101 75 -109
90 -65 119 31 20 69 8 80 -25 9 -31 25 -25 25 9 0 46 -63 66 -119 37z"/>
<path d="M3810 2142 c0 -4 9 -13 20 -20 18 -11 20 -23 20 -143 0 -122 -1 -131
-20 -136 -43 -11 -17 -23 50 -23 67 0 93 12 50 23 -19 5 -20 14 -20 140 0 127
1 136 20 142 11 4 18 11 15 16 -7 11 -135 12 -135 1z"/>
<path d="M4134 2139 c-61 -18 -114 -95 -114 -167 0 -99 107 -171 228 -151 28
4 56 11 62 14 6 4 7 28 4 60 -6 45 -4 56 10 61 9 3 16 15 16 26 0 11 -4 16
-11 12 -6 -3 -35 2 -64 11 -50 17 -55 18 -79 2 -34 -23 -33 -35 2 -30 45 7 66
-17 64 -73 -2 -53 -12 -64 -57 -64 -62 0 -105 56 -105 135 0 53 23 109 54 130
34 24 103 19 131 -10 14 -13 25 -29 25 -35 0 -5 5 -10 10 -10 6 0 10 18 10 39
0 39 0 39 -50 50 -59 13 -93 13 -136 0z"/>
<path d="M4408 2128 c21 -11 22 -16 22 -143 0 -126 -1 -133 -22 -148 -22 -15
-21 -16 35 -16 59 -1 67 4 43 23 -15 12 -32 230 -17 224 4 -2 57 -59 117 -127
60 -69 114 -125 119 -125 6 -1 11 55 13 144 2 133 4 146 23 163 21 17 20 17
-37 17 -58 0 -59 -1 -36 -18 21 -17 23 -24 20 -111 l-3 -94 -95 111 -95 111
-55 0 c-47 0 -52 -2 -32 -11z"/>
<path d="M400 1511 c0 -5 7 -11 15 -15 10 -3 15 -19 15 -46 0 -22 5 -40 10
-40 6 0 10 18 10 40 0 27 5 43 15 46 28 11 15 24 -25 24 -22 0 -40 -4 -40 -9z"/>
<path d="M540 1465 c0 -30 5 -55 10 -55 6 0 10 9 10 20 0 13 7 20 20 20 13 0
20 -7 20 -20 0 -11 5 -20 10 -20 6 0 10 25 10 55 0 30 -4 55 -10 55 -5 0 -10
-11 -10 -25 0 -18 -5 -25 -20 -25 -15 0 -20 7 -20 25 0 14 -4 25 -10 25 -5 0
-10 -25 -10 -55z"/>
<path d="M690 1465 c0 -30 5 -55 10 -55 6 0 10 10 10 23 l1 22 18 -22 c23 -27
47 -32 33 -6 -7 11 -6 25 1 41 9 20 8 27 -8 38 -10 8 -29 14 -42 14 -21 0 -23
-4 -23 -55z m50 20 c0 -8 -7 -15 -15 -15 -8 0 -15 7 -15 15 0 8 7 15 15 15 8
0 15 -7 15 -15z"/>
<path d="M830 1465 l0 -55 35 0 c19 0 35 5 35 10 0 6 -11 10 -25 10 -14 0 -25
5 -25 10 0 6 9 10 20 10 26 0 26 16 -1 23 -25 7 -16 27 12 27 10 0 19 5 19 10
0 6 -16 10 -35 10 l-35 0 0 -55z"/>
<path d="M975 1508 c-22 -73 -26 -90 -20 -96 4 -4 10 -1 12 6 5 14 43 16 43 2
0 -5 7 -10 16 -10 10 0 14 6 11 14 -3 8 -11 33 -17 55 -10 40 -36 56 -45 29z
m21 -55 c-11 -11 -17 4 -9 23 7 18 8 18 11 1 2 -10 1 -21 -2 -24z"/>
<path d="M1090 1465 l0 -55 35 0 c29 0 37 5 45 26 6 14 10 30 10 35 0 18 -41
49 -65 49 -24 0 -25 -3 -25 -55z m60 0 c0 -12 -7 -28 -15 -35 -13 -11 -15 -7
-15 28 0 33 3 40 15 36 8 -4 15 -16 15 -29z"/>
<path d="M1241 1503 c-11 -22 -5 -35 27 -52 29 -15 19 -33 -14 -25 -13 3 -24
2 -24 -4 0 -5 10 -12 22 -15 51 -14 82 44 33 63 -30 11 -34 35 -4 27 13 -3 19
-1 16 6 -6 20 -45 20 -56 0z"/>
<path d="M1447 1502 c-23 -25 -21 -58 3 -82 24 -24 29 -24 58 -4 40 28 21 104
-27 104 -10 0 -25 -8 -34 -18z m53 -22 c8 -14 8 -26 0 -40 -14 -27 -40 -14
-40 19 0 44 22 55 40 21z"/>
<path d="M1590 1465 c0 -30 5 -55 10 -55 6 0 10 9 10 20 0 13 7 20 20 20 11 0
20 5 20 10 0 6 -9 10 -21 10 -27 0 -19 24 9 28 35 5 25 22 -13 22 l-35 0 0
-55z"/>
<path d="M1776 1511 c-3 -5 3 -11 14 -14 16 -4 20 -14 20 -46 0 -23 5 -41 10
-41 6 0 10 20 10 45 0 33 4 45 15 45 8 0 15 5 15 10 0 12 -77 13 -84 1z"/>
<path d="M1920 1465 c0 -30 5 -55 10 -55 6 0 10 10 10 23 l1 22 18 -22 c23
-27 47 -32 33 -6 -7 11 -6 25 1 41 9 20 8 27 -8 38 -10 8 -29 14 -42 14 -21 0
-23 -4 -23 -55z m50 20 c0 -8 -7 -15 -15 -15 -8 0 -15 7 -15 15 0 8 7 15 15
15 8 0 15 -7 15 -15z"/>
<path d="M2059 1465 c-14 -45 -14 -55 -3 -55 8 0 14 5 14 10 0 14 37 13 42 -1
2 -7 9 -10 14 -8 16 6 -17 103 -36 107 -10 2 -20 -14 -31 -53z m41 0 c0 -8 -4
-15 -10 -15 -5 0 -10 7 -10 15 0 8 5 15 10 15 6 0 10 -7 10 -15z"/>
<path d="M2190 1465 l0 -55 34 0 c40 0 47 8 48 52 1 35 -22 58 -59 58 -21 0
-23 -4 -23 -55z m58 -9 c-2 -11 -11 -22 -20 -24 -14 -3 -18 3 -18 26 0 16 3
32 7 35 11 12 34 -15 31 -37z"/>
<path d="M2330 1466 c0 -44 3 -56 16 -56 12 0 14 10 12 52 -4 74 -28 77 -28 4z"/>
<path d="M2410 1510 c0 -5 7 -10 15 -10 11 0 15 -12 15 -45 0 -33 4 -45 15
-45 11 0 15 12 15 45 0 33 4 45 15 45 8 0 15 5 15 10 0 6 -20 10 -45 10 -25 0
-45 -4 -45 -10z"/>
<path d="M2550 1466 c0 -44 3 -56 16 -56 12 0 14 10 12 52 -4 74 -28 77 -28 4z"/>
<path d="M2650 1504 c-16 -18 -17 -71 -2 -86 15 -15 63 -13 73 3 16 26 10 78
-10 89 -27 14 -46 13 -61 -6z m48 -16 c16 -16 15 -43 -1 -57 -17 -14 -37 4
-37 34 0 35 17 44 38 23z"/>
<path d="M2790 1465 c0 -44 3 -55 16 -55 14 0 16 7 11 38 l-6 37 20 -37 c29
-57 49 -50 49 17 0 62 -17 75 -22 18 l-3 -38 -20 38 c-28 55 -45 48 -45 -18z"/>
<path d="M3096 1473 c8 -57 11 -63 29 -63 7 0 17 15 21 33 l7 32 9 -33 c14
-51 41 -39 51 22 12 73 -10 81 -23 9 l-7 -38 -8 43 c-4 23 -13 42 -20 42 -7 0
-16 -19 -20 -42 -5 -27 -9 -36 -12 -23 -11 56 -14 65 -24 65 -7 0 -8 -17 -3
-47z"/>
<path d="M3270 1465 l0 -55 35 0 c19 0 35 5 35 10 0 6 -9 10 -20 10 -27 0 -25
16 3 25 l22 8 -22 4 c-28 5 -30 33 -3 33 11 0 20 5 20 10 0 6 -16 10 -35 10
l-35 0 0 -55z"/>
<path d="M3411 1479 c-7 -22 -15 -47 -18 -55 -3 -8 1 -14 11 -14 9 0 16 5 16
10 0 6 9 10 20 10 11 0 20 -4 20 -10 0 -5 6 -10 14 -10 12 0 12 8 -3 53 -23
66 -43 72 -60 16z m39 -20 c0 -5 -4 -9 -10 -9 -5 0 -10 7 -10 16 0 8 5 12 10
9 6 -3 10 -10 10 -16z"/>
<path d="M3520 1513 c0 -5 7 -30 16 -56 21 -63 46 -63 62 -2 14 54 15 65 4 65
-5 0 -15 -19 -22 -42 l-13 -43 -12 39 c-10 35 -35 62 -35 39z"/>
<path d="M3667 1513 c-4 -3 -7 -28 -7 -55 0 -36 4 -48 15 -48 12 0 15 13 15
55 0 51 -7 65 -23 48z"/>
<path d="M3750 1465 c0 -59 17 -76 22 -22 l3 32 18 -32 c28 -52 47 -43 47 22
0 30 -4 55 -10 55 -5 0 -10 -19 -11 -42 l0 -43 -22 43 c-30 60 -47 55 -47 -13z"/>
<path d="M3916 1505 c-41 -41 4 -122 53 -95 28 15 29 60 1 60 -22 0 -27 -15
-9 -26 7 -4 8 -9 0 -17 -7 -7 -15 -6 -26 3 -31 26 -7 78 30 64 13 -5 16 -3 13
7 -7 20 -43 23 -62 4z"/>
<path d="M4110 1511 c0 -5 7 -11 15 -15 10 -3 15 -19 15 -46 0 -22 5 -40 10
-40 6 0 10 20 10 45 0 33 4 45 15 45 8 0 15 5 15 10 0 6 -18 10 -40 10 -22 0
-40 -4 -40 -9z"/>
<path d="M4250 1465 c0 -30 5 -55 10 -55 6 0 10 9 10 20 0 13 7 20 20 20 13 0
20 -7 20 -20 0 -11 7 -20 16 -20 12 0 14 10 12 52 -3 53 -28 83 -28 34 0 -19
-5 -26 -20 -26 -15 0 -20 7 -20 25 0 14 -4 25 -10 25 -5 0 -10 -25 -10 -55z"/>
<path d="M4400 1465 l0 -55 35 0 c19 0 35 5 35 10 0 6 -11 10 -25 10 -14 0
-25 5 -25 10 0 6 9 10 20 10 11 0 20 5 20 10 0 6 -9 10 -21 10 -27 0 -19 24 9
28 35 5 25 22 -13 22 l-35 0 0 -55z"/>
<path d="M4600 1465 c0 -30 5 -55 10 -55 6 0 10 9 10 20 0 13 7 20 20 20 11 0
20 5 20 10 0 6 -9 10 -21 10 -27 0 -19 24 9 28 35 5 25 22 -13 22 l-35 0 0
-55z"/>
<path d="M4720 1476 c0 -34 5 -48 21 -60 22 -15 48 -11 61 8 11 16 9 96 -2 96
-5 0 -10 -17 -10 -39 0 -37 -19 -68 -33 -54 -4 3 -7 26 -7 50 0 32 -4 43 -15
43 -11 0 -15 -12 -15 -44z"/>
<path d="M4865 1510 c-3 -5 1 -10 9 -10 15 0 22 -27 18 -72 -1 -10 5 -18 13
-18 11 0 15 12 15 45 0 33 4 45 15 45 8 0 15 5 15 10 0 6 -18 10 -39 10 -22 0
-43 -4 -46 -10z"/>
<path d="M5000 1481 c0 -64 52 -100 82 -57 11 16 9 96 -2 96 -5 0 -10 -17 -10
-39 0 -22 -6 -44 -15 -51 -17 -14 -23 -5 -27 49 -4 51 -28 53 -28 2z"/>
<path d="M5157 1513 c-4 -3 -7 -28 -7 -55 0 -36 4 -48 15 -48 9 0 15 9 16 23
l0 22 16 -22 c20 -30 49 -32 31 -3 -10 15 -10 22 0 32 16 16 15 23 -4 42 -16
16 -55 22 -67 9z m51 -31 c2 -7 -3 -12 -12 -12 -9 0 -16 7 -16 16 0 17 22 14
28 -4z"/>
<path d="M5290 1465 l0 -55 35 0 c19 0 35 5 35 10 0 6 -9 10 -20 10 -27 0 -25
16 3 25 l22 8 -22 4 c-28 5 -30 33 -3 33 11 0 20 5 20 10 0 6 -16 10 -35 10
l-35 0 0 -55z"/>
<path d="M2944 1405 c1 -30 20 -27 24 3 2 14 -2 22 -11 22 -10 0 -14 -9 -13
-25z"/>
<path d="M2615 975 c6 -2 55 -13 110 -26 l100 -22 -40 -17 c-27 -11 -48 -14
-65 -9 -40 13 -227 37 -325 43 -76 4 -82 3 -40 -5 150 -28 254 -50 289 -60
l38 -11 -85 -48 c-48 -26 -122 -73 -167 -104 -70 -49 -80 -54 -75 -34 31 140
31 147 -1 78 -32 -68 -124 -293 -121 -296 1 -1 47 39 102 88 99 90 222 184
230 176 2 -2 -7 -39 -20 -83 -14 -43 -23 -80 -21 -82 2 -2 35 19 72 48 78 59
156 111 228 150 l50 27 40 -20 c50 -25 170 -106 249 -166 32 -24 60 -42 63
-40 2 3 -4 29 -14 59 -11 30 -22 67 -26 82 -6 26 -5 27 13 17 46 -24 161 -118
240 -194 61 -60 81 -75 76 -56 -15 51 -137 331 -142 326 -5 -5 7 -65 23 -118
3 -11 -32 7 -98 51 -57 38 -134 84 -171 103 l-68 36 88 21 c48 11 135 30 193
40 l105 20 -90 -5 c-104 -6 -298 -32 -330 -44 -14 -5 -35 -2 -61 9 l-39 17 79
19 c104 25 80 32 -37 11 -88 -16 -97 -16 -210 4 -105 18 -172 25 -142 15z
m318 -96 c5 -4 -7 -12 -26 -18 -28 -10 -42 -9 -68 2 l-34 14 35 15 c34 14 66
10 93 -13z m-144 -49 c11 -6 0 -15 -37 -34 -28 -14 -54 -26 -57 -26 -3 0 -5
11 -5 24 0 46 49 63 99 36z m246 8 c18 -8 25 -19 25 -40 0 -15 -1 -28 -3 -28
-2 0 -27 12 -56 26 -53 25 -57 37 -16 47 11 3 21 5 22 6 1 0 14 -4 28 -11z"/>
<path d="M3103 973 c9 -2 23 -2 30 0 6 3 -1 5 -18 5 -16 0 -22 -2 -12 -5z"/>
</g>
</svg>
